<mxfile host="app.diagrams.net" agent="Mozilla/5.0 (Macintosh; Intel Mac OS X 10_15_7) AppleWebKit/605.1.15 (KHTML, like Gecko) Version/18.1 Safari/605.1.15" version="26.1.1">
  <diagram name="Page-1" id="By6dQNs391RpXOpqeUJY">
    <mxGraphModel>
      <root>
        <mxCell id="0" />
        <mxCell id="1" parent="0" />
        <mxCell id="2" value="Check Password Attempts" style="whiteSpace=wrap;strokeWidth=2;" vertex="1" parent="1">
          <mxGeometry x="74" y="8" width="244" height="54" as="geometry" />
        </mxCell>
        <mxCell id="3" value="attempts &gt; 0" style="rhombus;strokeWidth=2;whiteSpace=wrap;" vertex="1" parent="1">
          <mxGeometry x="123" y="112" width="145" height="145" as="geometry" />
        </mxCell>
        <mxCell id="4" value="Print Welcome Message" style="whiteSpace=wrap;strokeWidth=2;" vertex="1" parent="1">
          <mxGeometry x="83" y="330" width="227" height="54" as="geometry" />
        </mxCell>
        <mxCell id="5" value="Exit Program" style="whiteSpace=wrap;strokeWidth=2;" vertex="1" parent="1">
          <mxGeometry x="111" y="711" width="151" height="54" as="geometry" />
        </mxCell>
        <mxCell id="6" value="Decrease attempts by 1" style="whiteSpace=wrap;strokeWidth=2;" vertex="1" parent="1">
          <mxGeometry x="81" y="456" width="230" height="54" as="geometry" />
        </mxCell>
        <mxCell id="7" value="Check if attempts is still greater than 0" style="whiteSpace=wrap;strokeWidth=2;" vertex="1" parent="1">
          <mxGeometry x="141" y="560" width="260" height="78" as="geometry" />
        </mxCell>
        <mxCell id="8" value="" style="curved=1;startArrow=none;endArrow=block;exitX=0.5;exitY=1;entryX=0.5;entryY=0;" edge="1" parent="1" source="2" target="3">
          <mxGeometry relative="1" as="geometry">
            <Array as="points" />
          </mxGeometry>
        </mxCell>
        <mxCell id="9" value="true" style="curved=1;startArrow=none;endArrow=block;exitX=0.5;exitY=1;entryX=0.5;entryY=0;" edge="1" parent="1" source="3" target="4">
          <mxGeometry relative="1" as="geometry">
            <Array as="points" />
          </mxGeometry>
        </mxCell>
        <mxCell id="10" value="false" style="curved=1;startArrow=none;endArrow=block;exitX=0;exitY=0.82;entryX=0.05;entryY=0;" edge="1" parent="1" source="3" target="5">
          <mxGeometry relative="1" as="geometry">
            <Array as="points">
              <mxPoint x="27" y="294" />
              <mxPoint x="27" y="675" />
            </Array>
          </mxGeometry>
        </mxCell>
        <mxCell id="11" value="" style="curved=1;startArrow=none;endArrow=block;exitX=0.5;exitY=1;entryX=0.5;entryY=0.01;" edge="1" parent="1" source="4" target="6">
          <mxGeometry relative="1" as="geometry">
            <Array as="points" />
          </mxGeometry>
        </mxCell>
        <mxCell id="12" value="" style="curved=1;startArrow=none;endArrow=block;exitX=0.5;exitY=1.01;entryX=0.32;entryY=0.01;" edge="1" parent="1" source="6" target="7">
          <mxGeometry relative="1" as="geometry">
            <Array as="points">
              <mxPoint x="196" y="535" />
            </Array>
          </mxGeometry>
        </mxCell>
        <mxCell id="13" value="true" style="curved=1;startArrow=none;endArrow=block;exitX=0.68;exitY=0.01;entryX=1;entryY=0.87;" edge="1" parent="1" source="7" target="3">
          <mxGeometry relative="1" as="geometry">
            <Array as="points">
              <mxPoint x="346" y="535" />
              <mxPoint x="346" y="294" />
            </Array>
          </mxGeometry>
        </mxCell>
        <mxCell id="14" value="false" style="curved=1;startArrow=none;endArrow=block;exitX=0.5;exitY=1.01;entryX=0.74;entryY=0;" edge="1" parent="1" source="7" target="5">
          <mxGeometry relative="1" as="geometry">
            <Array as="points">
              <mxPoint x="271" y="675" />
            </Array>
          </mxGeometry>
        </mxCell>
      </root>
    </mxGraphModel>
  </diagram>
</mxfile>
